<svg width="428" height="371" viewBox="0 0 428 371" fill="none" xmlns="http://www.w3.org/2000/svg">
<path d="M83.3021 77.2232C46.9834 108.156 17.3905 140.213 5.28424 177.332C-6.14941 214.451 1.24885 257.194 24.7887 290.938C49.0012 324.683 90.0277 349.991 135.09 361.802C180.152 373.612 229.249 372.487 280.364 362.364C331.48 352.803 385.285 334.806 408.825 301.624C433.037 268.442 428.329 220.637 422.276 168.896C416.896 117.154 410.843 61.4758 374.524 30.5434C338.205 0.173352 272.294 -6.01315 217.143 5.23501C162.665 17.0456 119.621 46.2908 83.3021 77.2232Z" fill="url(#paint0_linear_10_11)" fill-opacity="0.95" style="mix-blend-mode:multiply"/>
<defs>
<linearGradient id="paint0_linear_10_11" x1="427.148" y1="370.309" x2="60.5824" y2="-52.521" gradientUnits="userSpaceOnUse">
<stop stop-color="#17648F"/>
<stop offset="1" stop-color="#25C7FA"/>
</linearGradient>
</defs>
</svg>
