<svg width="27" height="28" viewBox="0 0 27 28" fill="none" xmlns="http://www.w3.org/2000/svg">
<path d="M26.7398 11.3769C22.4185 11.3748 18.0972 11.3759 13.7759 11.3764C13.7765 13.1978 13.7738 15.0193 13.777 16.8402C16.2796 16.8396 18.7821 16.8391 21.2842 16.8402C20.9942 18.5857 19.9735 20.1818 18.526 21.1645C17.6161 21.7862 16.5707 22.1898 15.4929 22.3817C14.4081 22.5698 13.2873 22.5939 12.2052 22.3713C11.1049 22.1481 10.0545 21.6822 9.13822 21.0255C7.67305 19.9794 6.55489 18.4489 5.98077 16.7264C5.39372 14.9744 5.38941 13.025 5.98346 11.2746C6.39564 10.041 7.08169 8.90141 7.98293 7.97403C9.0946 6.8175 10.5399 5.99072 12.0971 5.65169C13.4304 5.36244 14.8364 5.41764 16.1418 5.81899C17.2513 6.16133 18.2742 6.7792 19.112 7.59231C19.9589 6.73652 20.8015 5.87583 21.6469 5.01845C22.0903 4.55695 22.5563 4.11565 22.9856 3.64158C21.7018 2.43417 20.1968 1.4636 18.5524 0.85005C15.5919 -0.257206 12.2531 -0.280707 9.27272 0.767595C5.91402 1.93614 3.05413 4.48866 1.46846 7.71494C0.916408 8.82664 0.513355 10.0132 0.271232 11.2337C-0.337882 14.2745 0.0866725 17.5167 1.46684 20.2863C2.36382 22.0941 3.64981 23.7012 5.20972 24.9611C6.68138 26.1537 8.39673 27.0346 10.2155 27.5262C12.5104 28.1518 14.9532 28.1375 17.2632 27.6033C19.3509 27.115 21.3262 26.1012 22.9033 24.6215C24.5703 23.0647 25.7594 21.0136 26.389 18.8093C27.0756 16.405 27.1703 13.8382 26.7398 11.3769Z" fill="black"/>
</svg>
