<svg width="27" height="27" viewBox="0 0 27 27" fill="none" xmlns="http://www.w3.org/2000/svg">
<path d="M22.0388 6.44625C22.0388 6.65145 21.9983 6.85466 21.9198 7.04423C21.8413 7.23382 21.7261 7.40608 21.5811 7.55119C21.436 7.6963 21.2637 7.81139 21.074 7.88992C20.8845 7.96846 20.6813 8.00887 20.4761 8.00887C20.2709 8.00887 20.0678 7.96846 19.8781 7.88992C19.6886 7.81139 19.5163 7.6963 19.3712 7.55119C19.226 7.40608 19.111 7.23382 19.0325 7.04423C18.9538 6.85466 18.9135 6.65145 18.9135 6.44625C18.9135 6.03182 19.078 5.63436 19.3712 5.34131C19.6643 5.04826 20.0617 4.88362 20.4761 4.88362C20.8906 4.88362 21.288 5.04826 21.5811 5.34131C21.8741 5.63436 22.0388 6.03182 22.0388 6.44625ZM27 13.5V13.5202L26.9106 19.1835C26.8878 21.2259 26.0663 23.1783 24.6221 24.6227C23.1782 26.0672 21.2259 26.889 19.1835 26.9123L13.5 27H13.4797L7.8165 26.9106C5.77407 26.8878 3.8217 26.0663 2.37725 24.6223C0.932788 23.1782 0.110995 21.2259 0.0877499 19.1835L0 13.5V13.4797L0.0894373 7.8165C0.112235 5.77407 0.933598 3.8217 2.37774 2.37725C3.82188 0.932785 5.77407 0.11099 7.8165 0.0877532L13.5 0H13.5202L19.1835 0.0894408C21.2259 0.112239 23.1783 0.933595 24.6227 2.37774C26.0672 3.82188 26.889 5.77407 26.9123 7.8165L27 13.5ZM24.4856 13.5L24.3979 7.85531C24.382 6.46697 23.8235 5.13996 22.8418 4.15819C21.8601 3.17643 20.533 2.6179 19.1447 2.60213L13.5 2.51438L7.85531 2.60213C6.46697 2.6179 5.13996 3.17643 4.15819 4.15819C3.17643 5.13996 2.61791 6.46697 2.60213 7.85531L2.51438 13.5L2.60213 19.1447C2.61791 20.533 3.17643 21.86 4.15819 22.8418C5.13996 23.8236 6.46697 24.382 7.85531 24.3979L13.5 24.4856L19.1447 24.3979C20.533 24.382 21.8601 23.8236 22.8418 22.8418C23.8235 21.86 24.382 20.533 24.3979 19.1447L24.4856 13.5ZM20.4323 13.5C20.4323 15.3385 19.7019 17.1018 18.4019 18.4019C17.1018 19.7019 15.3385 20.4323 13.5 20.4323C11.6614 20.4323 9.89819 19.7019 8.59814 18.4019C7.2981 17.1018 6.56775 15.3385 6.56775 13.5C6.56775 11.6614 7.2981 9.8982 8.59814 8.59815C9.89819 7.2981 11.6614 6.56775 13.5 6.56775C15.3385 6.56775 17.1018 7.2981 18.4019 8.59815C19.7019 9.8982 20.4323 11.6614 20.4323 13.5ZM17.9179 13.5C17.9179 12.3283 17.4525 11.2046 16.6239 10.3761C15.7954 9.54757 14.6717 9.08212 13.5 9.08212C12.3283 9.08212 11.2046 9.54757 10.3761 10.3761C9.54756 11.2046 9.08212 12.3283 9.08212 13.5C9.08212 14.6717 9.54756 15.7953 10.3761 16.6239C11.2046 17.4525 12.3283 17.9179 13.5 17.9179C14.6717 17.9179 15.7954 17.4525 16.6239 16.6239C17.4525 15.7953 17.9179 14.6717 17.9179 13.5Z" fill="black"/>
</svg>
