<svg width="123" height="117" viewBox="0 0 123 117" fill="none" xmlns="http://www.w3.org/2000/svg">
<circle cx="72.5" cy="66.5" r="50.5" fill="#FFB30B"/>
<path d="M49.6046 17.7189C49.4472 23.0666 46.2197 25.3125 42.0484 25.3125C37.877 25.3125 35.1594 21.8128 34.4922 17.7189C33.825 13.6251 37.877 10.1254 42.0484 10.1254C43.0435 10.1152 44.0306 10.3046 44.952 10.6826C45.8733 11.0606 46.7103 11.6196 47.414 12.3267C48.1177 13.0339 48.6739 13.8751 49.0501 14.801C49.4262 15.7269 49.6147 16.7189 49.6046 17.7189Z" fill="#383838"/>
<path d="M58.7035 62.447C58.7411 59.5275 55.1626 59.5918 53.9591 57.4705C53.1907 56.1152 53.3842 54.5724 53.4218 53.0832C53.4594 51.2566 53.4809 49.4352 53.454 47.6085C53.4057 43.7248 53.3734 39.8411 53.3842 35.9521C53.3842 34.1575 53.7227 32.2023 51.955 31.072C50.6171 30.2203 48.0595 30.4935 46.5819 30.4828C43.2614 30.4506 39.8334 30.2149 36.5344 30.5631C34.181 30.8149 30.9304 30.4292 30.6778 33.5522C30.5543 35.0575 30.3017 36.9538 31.6235 38.0091C32.3757 38.6144 33.3912 38.7269 34.1595 39.3376C34.7034 39.7825 35.1433 40.3404 35.4487 40.9723C35.754 41.6043 35.9173 42.295 35.9273 42.9963C36.0347 45.4926 35.9273 48.021 35.9273 50.4959C35.9273 53.41 36.6419 57.508 33.6598 59.2115C33.0688 59.5489 32.3811 59.64 31.8062 59.9935C31.3806 60.2792 31.0337 60.6667 30.7971 61.1206C30.5606 61.5745 30.442 62.0802 30.4522 62.5916C30.3823 63.7487 30.1996 65.2004 30.796 66.2396C31.0853 66.717 31.4987 67.1075 31.9925 67.3697C32.4862 67.6319 33.042 67.756 33.6007 67.7288C35.3738 67.7824 37.1738 67.7288 38.9738 67.7288C41.8483 67.7288 44.7014 67.7288 47.5706 67.7288C49.0052 67.7288 50.4398 67.7288 51.869 67.7288C53.4809 67.7288 55.7322 68.1413 57.1883 67.3592C59.0258 66.3842 58.682 64.2308 58.7035 62.447Z" fill="#383838"/>
<path d="M48.5892 19.7931C48.5316 22.0879 47.2481 23.9322 46.106 25.8078C44.9639 27.6835 42.1297 28.4275 40.0813 28.3437C35.4239 28.1603 31.4895 24.5137 31.3848 19.7826C31.28 14.8052 35.1987 11.1063 40.0918 11.1377C44.7386 11.1953 48.7254 15.1248 48.5892 19.7931ZM45.7393 19.7931C45.9907 16.6233 43.0308 14.0298 39.8665 14.1503C36.7022 14.2708 34.0566 16.5604 34.1404 19.7931C34.2272 21.3143 34.8915 22.745 35.9977 23.7928C37.1038 24.8405 38.5682 25.4264 40.0918 25.4306C43.4446 25.4516 45.493 22.8476 45.7393 19.7931Z" fill="#383838"/>
<path d="M55.3305 65.5909C55.3305 63.6242 56.57 61.9126 54.3739 60.9133C53.1499 60.3817 51.9567 60.706 50.9332 59.4462C50.4545 58.8462 50.1847 58.0975 50.1669 57.32C49.9303 54.6623 50.5732 51.7653 50.2749 49.0438C49.8326 45.0519 50.6966 41.1238 50.6246 37.1053C50.568 33.9798 50.7069 32.2523 48.7577 31.6516C46.4176 30.934 39.8242 31.9014 35.9 31.944C34.9897 31.944 34.0743 31.9705 33.1691 31.944C31.5027 31.8908 28.0672 30.6736 26.7197 32.1406C25.8659 33.0655 26.5963 39.8587 26.946 40.1138C27.6592 40.6011 28.4193 41.0108 29.2141 41.3364C31.0399 41.9211 31.9965 42.8885 32.3565 44.919C32.7237 47.4039 32.8854 49.9165 32.8399 52.4298C32.7733 54.1279 32.6015 55.82 32.3256 57.4954C32.1302 59.1273 31.4204 60.5359 29.893 61.2162C29.3787 61.4342 28.53 61.3013 28.1289 61.5299C27.6146 61.8116 26.8894 62.7577 26.8894 63.3478C26.8894 64.65 26.478 68.0519 26.8071 69.1044C27.4449 71.0711 29.749 70.8691 31.405 70.8691C33.9251 70.8054 36.4401 70.3376 38.955 70.4067C43.1878 70.5555 47.4411 70.8638 51.6584 70.3748C52.4504 70.2791 54.1682 70.6193 54.7442 70.0452C55.5568 69.1629 55.3665 67.3662 55.3305 65.5909ZM46.6542 67.7171C44.2935 68.0307 36.8052 67.4247 29.821 67.5045C29.8621 66.6646 29.5638 64.6554 30.0164 64.1238C30.6027 63.4434 32.125 63.1404 32.8656 62.3857C34.0934 61.1071 34.8159 59.4014 34.892 57.6017C35.0206 55.8157 34.892 53.9713 34.892 52.1906C34.892 49.6551 35.2366 47.0771 34.892 44.5682C34.796 43.5862 34.4942 42.6377 34.0074 41.7886C33.5207 40.9395 32.8608 40.2101 32.0736 39.6514C31.405 39.1889 29.6769 39.0401 29.2346 38.5883C28.7923 38.1365 29.0238 35.1014 28.9981 34.3891C35.1029 34.6176 41.6603 34.5911 47.7805 34.5326C47.8268 40.2095 47.5336 46.1044 47.6108 51.7919C47.6519 54.9334 47.2405 59.021 49.3183 61.5777C49.7554 62.1231 50.2767 62.5901 50.8612 62.9597C50.9589 63.0235 52.8413 63.6826 52.8413 63.7624C52.8413 64.8839 52.9544 67.228 52.9699 67.5523C52.2395 67.6054 48.1097 67.5044 46.6542 67.6799V67.7171Z" fill="#383838"/>
<path d="M0.604041 45.3252C0.397344 41.9515 0.074049 38.5829 0.01045 35.2039C-0.053149 31.8249 0.190647 28.5247 0.280746 25.1824C0.413244 20.5001 -0.63084 14.9717 0.895536 10.4681C2.80881 4.75583 8.10873 1.37679 14.0128 1.08776C19.281 0.814498 24.5703 0.814498 29.8437 0.725161C37.5445 0.567508 45.2135 0.467661 52.9355 0.352048C56.3433 0.299497 59.7458 0.0525075 63.1537 0.0104667C66.3336 -0.021064 69.6514 -0.0578497 72.6935 1.14031C75.2625 2.16428 77.4821 3.89611 79.09 6.13108C80.6978 8.36606 81.6268 11.0108 81.767 13.7526C81.9949 19.9483 82.0532 26.2387 81.9525 32.4397C81.8942 35.8293 81.6292 39.2083 81.4596 42.5926C81.2953 45.8718 81.5126 49.1404 81.4225 52.4196C81.2953 56.9758 81.0091 61.532 80.8024 66.0829C80.6063 70.4289 79.027 74.428 75.6032 77.2868C71.1407 81.0021 65.3002 80.7656 59.8041 80.5554C55.0342 80.3768 50.3067 79.9879 45.5527 80.1876C39.9453 80.4188 34.338 80.6658 28.736 80.8865C26.3457 80.9811 23.9661 81.0021 21.5758 80.9916C17.3942 80.9916 12.9211 81.2281 9.13691 79.1891C4.16029 76.5143 1.12873 71.4168 0.445043 65.9778C-0.0372493 62.1468 0.206547 58.2318 0.333745 54.3798C0.434443 51.3476 0.572241 48.3364 0.604041 45.3252ZM3.0261 45.2937C3.1586 51.2635 3.1215 57.2385 3.2381 63.2136C3.3017 66.3982 3.3759 69.3358 5.17257 72.1473C6.47229 74.1831 8.30374 75.832 10.4725 76.9189C12.3858 77.8701 14.3043 78.012 16.3872 78.1013C18.91 78.2117 21.438 78.1644 23.9608 78.1381C33.0289 78.0435 42.0918 77.1659 51.1547 77.3341C56.7461 77.4392 62.5919 78.3851 68.1144 77.4339C70.5417 77.024 72.7808 75.8773 74.5228 74.1519C76.2648 72.4265 77.4237 70.2076 77.8398 67.8013C78.1684 65.7413 78.1631 63.5972 78.3009 61.532C78.4864 58.7468 78.6665 55.9616 78.7513 53.1764C78.8096 51.0428 78.5606 48.9723 78.5553 46.8282C78.5553 41.0476 79.3025 35.267 79.2813 29.4863C79.2813 24.2943 79.2813 19.0497 79.0587 13.8629C78.9177 11.4712 78.0387 9.18031 76.5409 7.30039C75.0431 5.42046 72.9988 4.04237 70.6849 3.35271C68.0879 2.61174 65.2313 2.77991 62.523 2.80093C59.608 2.80093 56.6931 2.99011 53.7887 3.03741C47.8793 3.13725 41.9805 3.132 36.0711 3.33695C30.4214 3.52613 24.7664 3.61021 19.1114 3.77838C15.3643 3.88873 11.3788 3.647 8.09813 5.73853C5.90704 7.11042 4.23115 9.15802 3.3282 11.5664C2.41661 14.1047 2.66041 16.8215 2.85121 19.4491C3.2752 25.2717 3.3017 31.0419 3.1851 36.8803C3.1109 39.7023 3.0473 42.498 3.0261 45.2937Z" fill="black"/>
</svg>
