<svg width="32" height="27" viewBox="0 0 32 27" fill="none" xmlns="http://www.w3.org/2000/svg">
<path d="M10.0634 27C22.1389 27 28.7437 16.6114 28.7437 7.60243C28.7437 7.30739 28.7437 7.01366 28.7245 6.72122C30.0094 5.75609 31.1186 4.56122 32 3.19236C30.8018 3.74368 29.5306 4.10517 28.2291 4.26495C29.5994 3.41321 30.6256 2.07251 31.1155 0.494147C29.8268 1.2882 28.4167 1.84789 26.9466 2.14896C25.7052 0.778213 23.9714 0 22.1595 0C18.5544 0 15.5879 3.0804 15.5879 6.82382C15.5879 7.34315 15.6451 7.86086 15.7581 8.36669C10.4819 8.0921 5.55931 5.50065 2.22719 1.2438C0.494437 4.34121 1.391 8.35526 4.25981 10.3444C3.21512 10.3123 2.19287 10.0196 1.28 9.49114V9.57752C1.28087 12.8104 3.49544 15.6204 6.54719 16.2605C5.58069 16.5342 4.56638 16.5742 3.58275 16.3775C4.44069 19.1477 6.91469 21.0573 9.7165 21.1119C7.39213 23.0087 4.51919 24.0391 1.56288 24.036C1.0405 24.035 0.518625 24.0021 0 23.9376C3.00213 25.9382 6.49625 26.9996 10.0634 26.9947" fill="black"/>
</svg>
