<svg width="27" height="27" viewBox="0 0 27 27" fill="none" xmlns="http://www.w3.org/2000/svg">
<path fill-rule="evenodd" clip-rule="evenodd" d="M19.6855 16.1799C19.3496 16.0126 17.6981 15.204 17.3902 15.0923C17.0823 14.9807 16.8584 14.925 16.6344 15.2596C16.4105 15.5942 15.7667 16.3473 15.5708 16.5704C15.3749 16.7935 15.1789 16.8215 14.843 16.654C14.5071 16.4868 13.4247 16.1338 12.1417 14.9948C11.1432 14.1083 10.469 13.0136 10.2731 12.6789C10.0771 12.3443 10.2521 12.1634 10.4203 11.9967C10.5715 11.8469 10.7563 11.6062 10.9242 11.411C11.0922 11.2158 11.1482 11.0763 11.2601 10.8533C11.3721 10.6301 11.3161 10.435 11.2321 10.2677C11.1482 10.1003 10.4764 8.45482 10.1965 7.78535C9.92377 7.13358 9.64686 7.22185 9.44067 7.21151C9.24497 7.20186 9.02074 7.19981 8.79688 7.19981C8.57297 7.19981 8.209 7.28347 7.90109 7.61804C7.59322 7.95272 6.72548 8.76157 6.72548 10.4069C6.72548 12.0525 7.92909 13.642 8.09705 13.8652C8.26501 14.0884 10.4657 17.4649 13.8354 18.913C14.6367 19.2575 15.2625 19.4632 15.7503 19.6172C16.555 19.8717 17.2872 19.8358 17.866 19.7496C18.5114 19.6538 19.8534 18.941 20.1334 18.1602C20.4132 17.3791 20.4132 16.7098 20.3293 16.5704C20.2453 16.4309 20.0214 16.3473 19.6855 16.1799V16.1799ZM13.5565 24.5085H13.5519C11.5469 24.5077 9.58036 23.9716 7.8648 22.9584L7.45675 22.7174L3.22777 23.8215L4.35654 19.7179L4.09092 19.2971C2.97237 17.5267 2.38159 15.4803 2.38249 13.3791C2.38496 7.24789 7.39753 2.25972 13.5609 2.25972C16.5454 2.26072 19.3509 3.41895 21.4606 5.52091C23.5702 7.62282 24.7313 10.4168 24.7302 13.3881C24.7276 19.5198 19.7151 24.5085 13.5565 24.5085V24.5085ZM23.0662 3.92372C20.528 1.39482 17.1526 0.0014695 13.5563 0C6.1464 0 0.115646 6.00154 0.112641 13.3783C0.111691 15.7364 0.730688 18.0379 1.90719 20.067L0 27L7.12658 25.1395C9.09019 26.2054 11.301 26.7672 13.551 26.768H13.5565C20.9657 26.768 26.9969 20.7658 27 13.389C27.0014 9.81405 25.6043 6.45262 23.0662 3.92372" fill="black"/>
</svg>
