<svg width="525" height="319" viewBox="0 0 525 319" fill="none" xmlns="http://www.w3.org/2000/svg">
<g filter="url(#filter0_d_24_20)">
<rect x="85" y="31" width="405" height="248.39" rx="10" fill="white"/>
</g>
<g filter="url(#filter1_d_24_20)">
<rect x="35" y="97" width="211" height="49" rx="5" fill="white"/>
</g>
<g filter="url(#filter2_d_24_20)">
<path d="M85 41C85 35.4772 89.4772 31 95 31H480C485.523 31 490 35.4772 490 41V66H85V41Z" fill="white"/>
</g>
<path d="M102.397 52.0928L104.38 44.0469H105.453L105.521 45.7422L103.402 54H102.268L102.397 52.0928ZM101.146 44.0469L102.773 52.0654V54H101.536L99.2803 44.0469H101.146ZM107.579 52.0312L109.179 44.0469H111.052L108.796 54H107.559L107.579 52.0312ZM105.966 44.0469L107.948 52.1201L108.064 54H106.93L104.817 45.7354L104.899 44.0469H105.966ZM115.208 54.1367C114.647 54.1367 114.144 54.0456 113.697 53.8633C113.251 53.681 112.87 53.4281 112.556 53.1045C112.246 52.7764 112.007 52.3958 111.838 51.9629C111.674 51.5254 111.592 51.056 111.592 50.5547V50.2812C111.592 49.7116 111.674 49.1943 111.838 48.7295C112.002 48.2601 112.234 47.8568 112.535 47.5195C112.836 47.1823 113.196 46.9225 113.615 46.7402C114.035 46.5579 114.497 46.4668 115.003 46.4668C115.527 46.4668 115.99 46.5557 116.391 46.7334C116.792 46.9066 117.127 47.1527 117.396 47.4717C117.664 47.7907 117.867 48.1735 118.004 48.6201C118.141 49.0622 118.209 49.5521 118.209 50.0898V50.8486H112.412V49.6045H116.432V49.4678C116.423 49.1807 116.368 48.9186 116.268 48.6816C116.167 48.4401 116.012 48.2487 115.803 48.1074C115.593 47.9616 115.322 47.8887 114.989 47.8887C114.72 47.8887 114.486 47.9479 114.285 48.0664C114.089 48.1803 113.925 48.3444 113.793 48.5586C113.665 48.7682 113.57 49.0189 113.506 49.3105C113.442 49.6022 113.41 49.9258 113.41 50.2812V50.5547C113.41 50.8646 113.451 51.1517 113.533 51.416C113.62 51.6803 113.745 51.9105 113.909 52.1064C114.078 52.2979 114.278 52.4482 114.511 52.5576C114.748 52.6624 115.017 52.7148 115.317 52.7148C115.696 52.7148 116.037 52.6419 116.343 52.4961C116.653 52.3457 116.922 52.1247 117.149 51.833L118.059 52.7764C117.904 53.0042 117.694 53.223 117.43 53.4326C117.17 53.6423 116.855 53.8132 116.486 53.9453C116.117 54.0729 115.691 54.1367 115.208 54.1367ZM119.412 43.5H121.224V52.3662L121.046 54H119.412V43.5ZM125.981 50.2266V50.3701C125.981 50.9215 125.92 51.4274 125.797 51.8877C125.678 52.348 125.498 52.7467 125.257 53.084C125.015 53.4167 124.715 53.6764 124.354 53.8633C123.999 54.0456 123.582 54.1367 123.104 54.1367C122.648 54.1367 122.251 54.0479 121.914 53.8701C121.581 53.6924 121.301 53.4417 121.073 53.1182C120.845 52.79 120.663 52.4049 120.526 51.9629C120.39 51.5163 120.287 51.0286 120.219 50.5V50.1104C120.287 49.5771 120.39 49.0895 120.526 48.6475C120.663 48.2054 120.845 47.8203 121.073 47.4922C121.301 47.1641 121.581 46.9111 121.914 46.7334C122.247 46.5557 122.639 46.4668 123.09 46.4668C123.573 46.4668 123.994 46.5602 124.354 46.7471C124.719 46.9294 125.02 47.1891 125.257 47.5264C125.498 47.859 125.678 48.2555 125.797 48.7158C125.92 49.1715 125.981 49.6751 125.981 50.2266ZM124.17 50.3701V50.2266C124.17 49.9121 124.145 49.6159 124.095 49.3379C124.045 49.0553 123.963 48.807 123.849 48.5928C123.735 48.3786 123.58 48.21 123.384 48.0869C123.188 47.9639 122.942 47.9023 122.646 47.9023C122.363 47.9023 122.121 47.9502 121.921 48.0459C121.725 48.1416 121.561 48.2738 121.429 48.4424C121.301 48.611 121.201 48.8092 121.128 49.0371C121.06 49.265 121.014 49.5111 120.991 49.7754V50.8418C121.023 51.1927 121.098 51.5094 121.217 51.792C121.335 52.07 121.511 52.291 121.743 52.4551C121.98 52.6191 122.285 52.7012 122.659 52.7012C122.951 52.7012 123.195 52.6442 123.391 52.5303C123.587 52.4118 123.742 52.2477 123.855 52.0381C123.969 51.8239 124.049 51.5755 124.095 51.293C124.145 51.0104 124.17 50.7028 124.17 50.3701ZM134.875 45.5576L132.038 54H130.049L133.768 44.0469H135.039L134.875 45.5576ZM137.247 54L134.396 45.5576L134.226 44.0469H135.504L139.243 54H137.247ZM137.117 50.3018V51.7852H131.778V50.3018H137.117ZM141.759 48.0254V56.8438H139.947V46.6035H141.622L141.759 48.0254ZM146.51 50.2266V50.3701C146.51 50.9079 146.446 51.4069 146.318 51.8672C146.195 52.3229 146.013 52.7217 145.771 53.0635C145.53 53.4007 145.229 53.665 144.869 53.8564C144.514 54.0433 144.104 54.1367 143.639 54.1367C143.183 54.1367 142.786 54.0501 142.449 53.877C142.112 53.6992 141.827 53.4486 141.595 53.125C141.362 52.8014 141.175 52.4255 141.034 51.9971C140.897 51.5641 140.795 51.0924 140.727 50.582V50.124C140.795 49.5817 140.897 49.0895 141.034 48.6475C141.175 48.2008 141.362 47.8158 141.595 47.4922C141.827 47.1641 142.11 46.9111 142.442 46.7334C142.78 46.5557 143.174 46.4668 143.625 46.4668C144.094 46.4668 144.507 46.5557 144.862 46.7334C145.222 46.9111 145.525 47.1663 145.771 47.499C146.018 47.8317 146.202 48.2282 146.325 48.6885C146.448 49.1488 146.51 49.6615 146.51 50.2266ZM144.698 50.3701V50.2266C144.698 49.8984 144.669 49.5954 144.609 49.3174C144.55 49.0348 144.459 48.7887 144.336 48.5791C144.213 48.3649 144.053 48.1986 143.857 48.0801C143.661 47.9616 143.424 47.9023 143.146 47.9023C142.868 47.9023 142.629 47.9479 142.429 48.0391C142.228 48.1302 142.064 48.2601 141.937 48.4287C141.809 48.5973 141.709 48.7979 141.636 49.0303C141.567 49.2581 141.522 49.5111 141.499 49.7891V50.9238C141.54 51.2611 141.62 51.5641 141.738 51.833C141.857 52.1019 142.03 52.3161 142.258 52.4756C142.49 52.6351 142.791 52.7148 143.16 52.7148C143.438 52.7148 143.675 52.6533 143.871 52.5303C144.067 52.4072 144.227 52.2386 144.35 52.0244C144.473 51.8057 144.562 51.555 144.616 51.2725C144.671 50.9899 144.698 50.6891 144.698 50.3701ZM149.634 48.0254V56.8438H147.822V46.6035H149.497L149.634 48.0254ZM154.385 50.2266V50.3701C154.385 50.9079 154.321 51.4069 154.193 51.8672C154.07 52.3229 153.888 52.7217 153.646 53.0635C153.405 53.4007 153.104 53.665 152.744 53.8564C152.389 54.0433 151.979 54.1367 151.514 54.1367C151.058 54.1367 150.661 54.0501 150.324 53.877C149.987 53.6992 149.702 53.4486 149.47 53.125C149.237 52.8014 149.05 52.4255 148.909 51.9971C148.772 51.5641 148.67 51.0924 148.602 50.582V50.124C148.67 49.5817 148.772 49.0895 148.909 48.6475C149.05 48.2008 149.237 47.8158 149.47 47.4922C149.702 47.1641 149.985 46.9111 150.317 46.7334C150.655 46.5557 151.049 46.4668 151.5 46.4668C151.969 46.4668 152.382 46.5557 152.737 46.7334C153.097 46.9111 153.4 47.1663 153.646 47.499C153.893 47.8317 154.077 48.2282 154.2 48.6885C154.323 49.1488 154.385 49.6615 154.385 50.2266ZM152.573 50.3701V50.2266C152.573 49.8984 152.544 49.5954 152.484 49.3174C152.425 49.0348 152.334 48.7887 152.211 48.5791C152.088 48.3649 151.928 48.1986 151.732 48.0801C151.536 47.9616 151.299 47.9023 151.021 47.9023C150.743 47.9023 150.504 47.9479 150.304 48.0391C150.103 48.1302 149.939 48.2601 149.812 48.4287C149.684 48.5973 149.584 48.7979 149.511 49.0303C149.442 49.2581 149.397 49.5111 149.374 49.7891V50.9238C149.415 51.2611 149.495 51.5641 149.613 51.833C149.732 52.1019 149.905 52.3161 150.133 52.4756C150.365 52.6351 150.666 52.7148 151.035 52.7148C151.313 52.7148 151.55 52.6533 151.746 52.5303C151.942 52.4072 152.102 52.2386 152.225 52.0244C152.348 51.8057 152.437 51.555 152.491 51.2725C152.546 50.9899 152.573 50.6891 152.573 50.3701Z" fill="#14A1DC"/>
<path d="M438.966 48.5C438.966 50.9853 436.959 53 434.483 53C432.007 53 430 50.9853 430 48.5C430 46.0147 432.007 44 434.483 44C436.959 44 438.966 46.0147 438.966 48.5Z" fill="#14A1DC"/>
<path d="M453.31 48.5C453.31 50.9853 451.303 53 448.828 53C446.352 53 444.345 50.9853 444.345 48.5C444.345 46.0147 446.352 44 448.828 44C451.303 44 453.31 46.0147 453.31 48.5Z" fill="#14A1DC"/>
<path d="M467.655 48.5C467.655 50.9853 465.648 53 463.172 53C460.697 53 458.69 50.9853 458.69 48.5C458.69 46.0147 460.697 44 463.172 44C465.648 44 467.655 46.0147 467.655 48.5Z" fill="#14A1DC"/>
<path d="M482 48.5C482 50.9853 479.993 53 477.517 53C475.041 53 473.034 50.9853 473.034 48.5C473.034 46.0147 475.041 44 477.517 44C479.993 44 482 46.0147 482 48.5Z" fill="#14A1DC"/>
<path d="M166.5 262C166.5 256.753 170.753 252.5 176 252.5H489.5V269C489.5 274.247 485.247 278.5 480 278.5H176C170.753 278.5 166.5 274.247 166.5 269V262Z" fill="white" stroke="#525252"/>
<path d="M405.357 262.602V269H404.153V262.602H405.357ZM407.344 262.602V263.555H402.189V262.602H407.344ZM409.783 269.088C409.422 269.088 409.099 269.029 408.812 268.912C408.524 268.795 408.28 268.632 408.078 268.424C407.878 268.213 407.725 267.969 407.616 267.69C407.511 267.409 407.458 267.107 407.458 266.785V266.609C407.458 266.243 407.511 265.911 407.616 265.612C407.722 265.31 407.871 265.051 408.064 264.834C408.258 264.617 408.489 264.45 408.759 264.333C409.028 264.216 409.326 264.157 409.651 264.157C409.988 264.157 410.285 264.214 410.543 264.329C410.801 264.44 411.016 264.598 411.189 264.803C411.362 265.008 411.492 265.254 411.58 265.542C411.668 265.826 411.712 266.141 411.712 266.486V266.974H407.985V266.174H410.569V266.086C410.563 265.902 410.528 265.733 410.464 265.581C410.399 265.426 410.3 265.303 410.165 265.212C410.03 265.118 409.856 265.071 409.642 265.071C409.469 265.071 409.318 265.109 409.189 265.186C409.063 265.259 408.958 265.364 408.873 265.502C408.791 265.637 408.729 265.798 408.688 265.985C408.647 266.173 408.627 266.381 408.627 266.609V266.785C408.627 266.984 408.653 267.169 408.706 267.339C408.762 267.509 408.842 267.657 408.948 267.783C409.056 267.906 409.185 268.002 409.334 268.073C409.487 268.14 409.66 268.174 409.853 268.174C410.096 268.174 410.316 268.127 410.512 268.033C410.711 267.937 410.884 267.794 411.031 267.607L411.615 268.213C411.516 268.36 411.381 268.5 411.211 268.635C411.044 268.77 410.842 268.88 410.604 268.965C410.367 269.047 410.093 269.088 409.783 269.088ZM413.646 265.221V269H412.485V264.245H413.58L413.646 265.221ZM413.474 266.451H413.118C413.118 266.12 413.158 265.815 413.237 265.537C413.319 265.259 413.439 265.017 413.597 264.812C413.755 264.604 413.95 264.443 414.182 264.329C414.416 264.214 414.687 264.157 414.995 264.157C415.208 264.157 415.405 264.189 415.583 264.254C415.762 264.315 415.916 264.414 416.045 264.548C416.177 264.68 416.278 264.853 416.348 265.067C416.418 265.278 416.454 265.531 416.454 265.827V269H415.293V265.946C415.293 265.723 415.261 265.549 415.197 265.423C415.135 265.297 415.046 265.209 414.929 265.159C414.812 265.106 414.671 265.08 414.507 265.08C414.325 265.08 414.168 265.117 414.037 265.19C413.908 265.26 413.801 265.358 413.716 265.484C413.634 265.61 413.572 265.755 413.531 265.919C413.493 266.083 413.474 266.261 413.474 266.451ZM416.366 266.236L415.887 266.324C415.89 266.025 415.931 265.745 416.01 265.484C416.089 265.221 416.205 264.991 416.357 264.794C416.512 264.595 416.704 264.44 416.933 264.329C417.164 264.214 417.431 264.157 417.732 264.157C417.967 264.157 418.178 264.191 418.365 264.258C418.556 264.323 418.718 264.427 418.853 264.57C418.988 264.711 419.09 264.894 419.161 265.12C419.234 265.345 419.271 265.621 419.271 265.946V269H418.102V265.941C418.102 265.71 418.069 265.533 418.005 265.41C417.943 265.287 417.854 265.202 417.737 265.155C417.62 265.105 417.482 265.08 417.324 265.08C417.163 265.08 417.022 265.111 416.902 265.172C416.785 265.231 416.685 265.313 416.603 265.418C416.524 265.524 416.464 265.647 416.423 265.788C416.385 265.925 416.366 266.075 416.366 266.236ZM421.472 265.159V270.828H420.308V264.245H421.384L421.472 265.159ZM424.526 266.574V266.667C424.526 267.012 424.485 267.333 424.403 267.629C424.324 267.922 424.207 268.178 424.052 268.398C423.896 268.615 423.703 268.785 423.472 268.908C423.243 269.028 422.979 269.088 422.681 269.088C422.388 269.088 422.133 269.032 421.916 268.921C421.699 268.807 421.516 268.646 421.367 268.438C421.217 268.229 421.097 267.988 421.006 267.712C420.918 267.434 420.853 267.131 420.809 266.803V266.508C420.853 266.16 420.918 265.843 421.006 265.559C421.097 265.272 421.217 265.024 421.367 264.816C421.516 264.605 421.698 264.443 421.912 264.329C422.128 264.214 422.382 264.157 422.672 264.157C422.974 264.157 423.239 264.214 423.467 264.329C423.699 264.443 423.894 264.607 424.052 264.821C424.21 265.035 424.329 265.29 424.408 265.585C424.487 265.881 424.526 266.211 424.526 266.574ZM423.362 266.667V266.574C423.362 266.363 423.343 266.168 423.305 265.99C423.267 265.808 423.208 265.65 423.129 265.515C423.05 265.377 422.947 265.271 422.821 265.194C422.695 265.118 422.543 265.08 422.364 265.08C422.186 265.08 422.032 265.109 421.903 265.168C421.774 265.227 421.668 265.31 421.586 265.418C421.504 265.527 421.44 265.656 421.393 265.805C421.349 265.952 421.32 266.114 421.305 266.293V267.022C421.332 267.239 421.383 267.434 421.459 267.607C421.535 267.78 421.646 267.917 421.793 268.02C421.942 268.123 422.136 268.174 422.373 268.174C422.552 268.174 422.704 268.134 422.83 268.055C422.956 267.976 423.059 267.868 423.138 267.73C423.217 267.589 423.274 267.428 423.309 267.247C423.344 267.065 423.362 266.872 423.362 266.667ZM426.605 262.25V269H425.44V262.25H426.605ZM430.332 267.989V265.796C430.332 265.635 430.304 265.496 430.248 265.379C430.192 265.262 430.107 265.171 429.993 265.106C429.879 265.042 429.734 265.01 429.558 265.01C429.403 265.01 429.267 265.036 429.149 265.089C429.035 265.142 428.947 265.216 428.886 265.313C428.824 265.407 428.793 265.515 428.793 265.638H427.629C427.629 265.442 427.676 265.256 427.77 265.08C427.863 264.901 427.997 264.743 428.169 264.605C428.345 264.465 428.555 264.355 428.798 264.276C429.044 264.197 429.319 264.157 429.624 264.157C429.984 264.157 430.305 264.219 430.586 264.342C430.871 264.462 431.093 264.644 431.254 264.887C431.418 265.13 431.5 265.436 431.5 265.805V267.879C431.5 268.117 431.515 268.32 431.544 268.49C431.577 268.657 431.624 268.802 431.685 268.925V269H430.503C430.447 268.88 430.405 268.728 430.375 268.543C430.346 268.355 430.332 268.171 430.332 267.989ZM430.494 266.104L430.503 266.794H429.769C429.587 266.794 429.428 266.813 429.29 266.851C429.152 266.886 429.04 266.939 428.952 267.009C428.864 267.077 428.798 267.159 428.754 267.255C428.71 267.349 428.688 267.456 428.688 267.576C428.688 267.693 428.714 267.799 428.767 267.893C428.823 267.986 428.902 268.061 429.004 268.117C429.11 268.169 429.233 268.196 429.374 268.196C429.579 268.196 429.757 268.155 429.91 268.073C430.062 267.988 430.181 267.885 430.266 267.765C430.351 267.645 430.396 267.531 430.402 267.422L430.736 267.923C430.695 268.043 430.633 268.171 430.551 268.306C430.469 268.44 430.364 268.566 430.235 268.684C430.106 268.801 429.951 268.897 429.769 268.974C429.587 269.05 429.376 269.088 429.136 269.088C428.829 269.088 428.553 269.026 428.31 268.903C428.067 268.78 427.875 268.612 427.734 268.398C427.594 268.184 427.523 267.941 427.523 267.668C427.523 267.417 427.57 267.194 427.664 267C427.758 266.807 427.897 266.645 428.082 266.513C428.266 266.378 428.495 266.277 428.767 266.209C429.042 266.139 429.357 266.104 429.712 266.104H430.494ZM434.796 264.245V265.08H432.072V264.245H434.796ZM432.801 263.076H433.966V267.629C433.966 267.77 433.985 267.878 434.023 267.954C434.061 268.03 434.118 268.082 434.194 268.108C434.271 268.134 434.361 268.147 434.467 268.147C434.543 268.147 434.613 268.143 434.678 268.134C434.742 268.125 434.796 268.117 434.84 268.108L434.845 268.978C434.748 269.01 434.638 269.037 434.515 269.057C434.395 269.078 434.259 269.088 434.106 269.088C433.846 269.088 433.617 269.044 433.421 268.956C433.225 268.865 433.072 268.72 432.964 268.521C432.855 268.319 432.801 268.052 432.801 267.721V263.076ZM437.706 269.088C437.345 269.088 437.021 269.029 436.734 268.912C436.447 268.795 436.203 268.632 436 268.424C435.801 268.213 435.647 267.969 435.539 267.69C435.434 267.409 435.381 267.107 435.381 266.785V266.609C435.381 266.243 435.434 265.911 435.539 265.612C435.645 265.31 435.794 265.051 435.987 264.834C436.181 264.617 436.412 264.45 436.682 264.333C436.951 264.216 437.249 264.157 437.574 264.157C437.911 264.157 438.208 264.214 438.466 264.329C438.724 264.44 438.939 264.598 439.112 264.803C439.285 265.008 439.415 265.254 439.503 265.542C439.591 265.826 439.635 266.141 439.635 266.486V266.974H435.908V266.174H438.492V266.086C438.486 265.902 438.451 265.733 438.387 265.581C438.322 265.426 438.223 265.303 438.088 265.212C437.953 265.118 437.779 265.071 437.565 265.071C437.392 265.071 437.241 265.109 437.112 265.186C436.986 265.259 436.881 265.364 436.796 265.502C436.714 265.637 436.652 265.798 436.611 265.985C436.57 266.173 436.55 266.381 436.55 266.609V266.785C436.55 266.984 436.576 267.169 436.629 267.339C436.685 267.509 436.765 267.657 436.871 267.783C436.979 267.906 437.108 268.002 437.257 268.073C437.41 268.14 437.583 268.174 437.776 268.174C438.019 268.174 438.239 268.127 438.435 268.033C438.634 267.937 438.807 267.794 438.954 267.607L439.538 268.213C439.438 268.36 439.304 268.5 439.134 268.635C438.967 268.77 438.765 268.88 438.527 268.965C438.29 269.047 438.016 269.088 437.706 269.088ZM445.194 266.148H443.559L443.55 265.295H444.952C445.192 265.295 445.393 265.262 445.554 265.194C445.715 265.127 445.837 265.029 445.919 264.9C446.004 264.771 446.046 264.614 446.046 264.43C446.046 264.225 446.007 264.058 445.928 263.929C445.852 263.8 445.731 263.706 445.567 263.647C445.403 263.586 445.195 263.555 444.943 263.555H443.95V269H442.742V262.602H444.943C445.307 262.602 445.63 262.637 445.915 262.707C446.202 262.774 446.445 262.88 446.644 263.023C446.843 263.167 446.994 263.347 447.097 263.564C447.202 263.781 447.255 264.039 447.255 264.337C447.255 264.601 447.193 264.844 447.07 265.067C446.95 265.287 446.764 265.465 446.512 265.603C446.263 265.741 445.947 265.82 445.563 265.84L445.194 266.148ZM445.141 269H443.203L443.708 268.051H445.141C445.381 268.051 445.579 268.011 445.734 267.932C445.893 267.853 446.01 267.745 446.086 267.607C446.165 267.466 446.205 267.305 446.205 267.124C446.205 266.924 446.169 266.751 446.099 266.605C446.032 266.458 445.923 266.346 445.774 266.267C445.627 266.188 445.434 266.148 445.194 266.148H443.937L443.946 265.295H445.545L445.822 265.625C446.191 265.628 446.492 265.701 446.723 265.845C446.958 265.988 447.13 266.173 447.242 266.398C447.353 266.624 447.409 266.867 447.409 267.128C447.409 267.538 447.319 267.882 447.141 268.161C446.965 268.439 446.707 268.648 446.367 268.789C446.03 268.93 445.622 269 445.141 269ZM449.76 268.473L451.034 264.245H452.278L450.371 269.721C450.327 269.838 450.27 269.965 450.199 270.103C450.132 270.241 450.041 270.371 449.927 270.494C449.812 270.62 449.669 270.723 449.496 270.802C449.326 270.881 449.12 270.92 448.876 270.92C448.771 270.92 448.677 270.913 448.595 270.898C448.513 270.884 448.427 270.865 448.336 270.841V269.971C448.365 269.974 448.399 269.976 448.437 269.976C448.478 269.979 448.513 269.98 448.542 269.98C448.712 269.98 448.853 269.959 448.964 269.918C449.076 269.88 449.165 269.817 449.232 269.729C449.303 269.645 449.361 269.533 449.408 269.396L449.76 268.473ZM449.131 264.245L450.208 267.748L450.397 268.974L449.597 269.119L447.879 264.245H449.131ZM462.231 266.68C462.22 266.973 462.176 267.263 462.1 267.55C462.026 267.834 461.914 268.093 461.761 268.328C461.612 268.559 461.42 268.745 461.186 268.886C460.951 269.023 460.668 269.092 460.337 269.092C460.144 269.092 459.971 269.059 459.819 268.991C459.667 268.924 459.539 268.827 459.437 268.701C459.334 268.572 459.259 268.418 459.212 268.24C459.166 268.058 459.149 267.856 459.164 267.633L459.388 265.124H460.214L459.995 267.633C459.977 267.8 459.98 267.937 460.003 268.042C460.027 268.147 460.063 268.229 460.113 268.288C460.163 268.344 460.22 268.383 460.285 268.407C460.352 268.43 460.418 268.442 460.482 268.442C460.632 268.442 460.767 268.398 460.887 268.31C461.01 268.219 461.115 268.095 461.203 267.937C461.291 267.778 461.36 267.595 461.41 267.387C461.459 267.176 461.489 266.949 461.498 266.706C461.515 266.305 461.495 265.934 461.436 265.594C461.38 265.254 461.284 264.951 461.146 264.685C461.008 264.418 460.83 264.192 460.61 264.008C460.39 263.82 460.129 263.677 459.828 263.577C459.526 263.478 459.179 263.428 458.786 263.428C458.426 263.428 458.093 263.485 457.789 263.599C457.484 263.71 457.21 263.87 456.967 264.078C456.727 264.286 456.52 264.535 456.347 264.825C456.174 265.115 456.038 265.439 455.938 265.796C455.842 266.154 455.785 266.536 455.767 266.943C455.747 267.374 455.769 267.767 455.833 268.121C455.9 268.473 456.007 268.783 456.154 269.053C456.303 269.322 456.491 269.549 456.716 269.734C456.942 269.918 457.204 270.058 457.503 270.151C457.802 270.245 458.133 270.292 458.496 270.292C458.751 270.292 459.01 270.263 459.274 270.204C459.541 270.146 459.765 270.071 459.946 269.98L460.113 270.6C459.908 270.731 459.652 270.83 459.344 270.894C459.04 270.958 458.751 270.991 458.479 270.991C458.019 270.991 457.598 270.934 457.217 270.819C456.839 270.705 456.505 270.535 456.215 270.31C455.925 270.084 455.684 269.809 455.49 269.483C455.297 269.158 455.155 268.783 455.064 268.358C454.973 267.934 454.938 267.462 454.958 266.943C454.979 266.463 455.052 266.012 455.178 265.59C455.304 265.165 455.479 264.78 455.701 264.434C455.924 264.088 456.189 263.791 456.497 263.542C456.807 263.29 457.156 263.097 457.542 262.962C457.929 262.827 458.35 262.76 458.804 262.76C459.261 262.76 459.675 262.82 460.047 262.94C460.419 263.06 460.746 263.233 461.027 263.458C461.309 263.684 461.542 263.958 461.726 264.28C461.911 264.603 462.045 264.966 462.13 265.37C462.215 265.771 462.249 266.208 462.231 266.68ZM457.78 267.124C457.762 267.317 457.762 267.491 457.78 267.646C457.797 267.799 457.831 267.926 457.881 268.029C457.934 268.131 458.002 268.21 458.087 268.266C458.172 268.319 458.272 268.345 458.386 268.345C458.454 268.345 458.527 268.329 458.606 268.297C458.685 268.262 458.763 268.206 458.839 268.13C458.918 268.051 458.993 267.945 459.063 267.813C459.136 267.679 459.198 267.51 459.248 267.308L459.599 267.721C459.532 267.947 459.447 268.145 459.344 268.314C459.245 268.484 459.13 268.626 459.001 268.741C458.873 268.855 458.733 268.941 458.584 269C458.435 269.056 458.278 269.083 458.114 269.083C457.9 269.083 457.709 269.037 457.542 268.943C457.375 268.849 457.238 268.717 457.129 268.547C457.021 268.375 456.943 268.168 456.896 267.928C456.85 267.688 456.841 267.419 456.87 267.124C456.902 266.822 456.959 266.543 457.042 266.289C457.126 266.031 457.232 265.801 457.358 265.599C457.484 265.396 457.626 265.225 457.784 265.084C457.945 264.941 458.118 264.833 458.303 264.759C458.49 264.686 458.685 264.649 458.887 264.649C459.221 264.649 459.483 264.698 459.674 264.794C459.864 264.888 460.044 264.998 460.214 265.124L459.784 265.691C459.699 265.612 459.587 265.537 459.45 265.467C459.315 265.394 459.154 265.357 458.966 265.357C458.796 265.357 458.644 265.395 458.509 265.471C458.377 265.547 458.262 265.66 458.162 265.81C458.062 265.959 457.98 266.144 457.916 266.363C457.852 266.58 457.806 266.833 457.78 267.124ZM465.848 267.058V262.602H467.057V267.058C467.057 267.482 466.964 267.847 466.78 268.152C466.595 268.454 466.343 268.685 466.024 268.846C465.705 269.007 465.344 269.088 464.943 269.088C464.53 269.088 464.164 269.019 463.844 268.881C463.525 268.741 463.274 268.527 463.093 268.24C462.914 267.953 462.825 267.588 462.825 267.146H464.038C464.038 267.386 464.074 267.579 464.147 267.726C464.221 267.872 464.325 267.978 464.459 268.042C464.597 268.106 464.758 268.139 464.943 268.139C465.122 268.139 465.278 268.098 465.413 268.016C465.551 267.931 465.658 267.808 465.734 267.646C465.81 267.485 465.848 267.289 465.848 267.058ZM470.999 267.871V264.245H472.167V269H471.069L470.999 267.871ZM471.148 266.886L471.508 266.877C471.508 267.197 471.473 267.491 471.403 267.761C471.333 268.03 471.223 268.265 471.073 268.464C470.927 268.66 470.741 268.814 470.515 268.925C470.29 269.034 470.023 269.088 469.715 269.088C469.481 269.088 469.267 269.056 469.074 268.991C468.88 268.924 468.713 268.82 468.573 268.679C468.435 268.536 468.328 268.353 468.252 268.13C468.176 267.904 468.138 267.633 468.138 267.317V264.245H469.298V267.326C469.298 267.484 469.315 267.616 469.351 267.721C469.389 267.827 469.44 267.913 469.504 267.98C469.572 268.045 469.649 268.092 469.737 268.121C469.828 268.147 469.925 268.161 470.027 268.161C470.309 268.161 470.53 268.105 470.691 267.994C470.855 267.879 470.972 267.727 471.042 267.537C471.113 267.343 471.148 267.126 471.148 266.886ZM474.334 265.26V269H473.174V264.245H474.264L474.334 265.26ZM474.149 266.451H473.807C473.81 266.105 473.856 265.792 473.947 265.511C474.038 265.229 474.166 264.988 474.33 264.786C474.497 264.583 474.694 264.428 474.923 264.32C475.151 264.211 475.406 264.157 475.688 264.157C475.916 264.157 476.123 264.189 476.307 264.254C476.492 264.318 476.65 264.421 476.782 264.562C476.917 264.702 477.019 264.887 477.089 265.115C477.163 265.341 477.199 265.619 477.199 265.95V269H476.03V265.941C476.03 265.725 475.998 265.553 475.934 265.427C475.872 265.301 475.781 265.212 475.661 265.159C475.544 265.106 475.399 265.08 475.226 265.08C475.047 265.08 474.891 265.117 474.756 265.19C474.624 265.26 474.513 265.358 474.422 265.484C474.334 265.61 474.267 265.755 474.22 265.919C474.173 266.083 474.149 266.261 474.149 266.451Z" fill="#818181"/>
<defs>
<filter id="filter0_d_24_20" x="50" y="0" width="475" height="318.39" filterUnits="userSpaceOnUse" color-interpolation-filters="sRGB">
<feFlood flood-opacity="0" result="BackgroundImageFix"/>
<feColorMatrix in="SourceAlpha" type="matrix" values="0 0 0 0 0 0 0 0 0 0 0 0 0 0 0 0 0 0 127 0" result="hardAlpha"/>
<feMorphology radius="5" operator="dilate" in="SourceAlpha" result="effect1_dropShadow_24_20"/>
<feOffset dy="4"/>
<feGaussianBlur stdDeviation="15"/>
<feComposite in2="hardAlpha" operator="out"/>
<feColorMatrix type="matrix" values="0 0 0 0 0 0 0 0 0 0 0 0 0 0 0 0 0 0 0.1 0"/>
<feBlend mode="normal" in2="BackgroundImageFix" result="effect1_dropShadow_24_20"/>
<feBlend mode="normal" in="SourceGraphic" in2="effect1_dropShadow_24_20" result="shape"/>
</filter>
<filter id="filter1_d_24_20" x="0" y="66" width="281" height="119" filterUnits="userSpaceOnUse" color-interpolation-filters="sRGB">
<feFlood flood-opacity="0" result="BackgroundImageFix"/>
<feColorMatrix in="SourceAlpha" type="matrix" values="0 0 0 0 0 0 0 0 0 0 0 0 0 0 0 0 0 0 127 0" result="hardAlpha"/>
<feMorphology radius="5" operator="dilate" in="SourceAlpha" result="effect1_dropShadow_24_20"/>
<feOffset dy="4"/>
<feGaussianBlur stdDeviation="15"/>
<feComposite in2="hardAlpha" operator="out"/>
<feColorMatrix type="matrix" values="0 0 0 0 0 0 0 0 0 0 0 0 0 0 0 0 0 0 0.1 0"/>
<feBlend mode="normal" in2="BackgroundImageFix" result="effect1_dropShadow_24_20"/>
<feBlend mode="normal" in="SourceGraphic" in2="effect1_dropShadow_24_20" result="shape"/>
</filter>
<filter id="filter2_d_24_20" x="50" y="0" width="475" height="105" filterUnits="userSpaceOnUse" color-interpolation-filters="sRGB">
<feFlood flood-opacity="0" result="BackgroundImageFix"/>
<feColorMatrix in="SourceAlpha" type="matrix" values="0 0 0 0 0 0 0 0 0 0 0 0 0 0 0 0 0 0 127 0" result="hardAlpha"/>
<feMorphology radius="5" operator="dilate" in="SourceAlpha" result="effect1_dropShadow_24_20"/>
<feOffset dy="4"/>
<feGaussianBlur stdDeviation="15"/>
<feComposite in2="hardAlpha" operator="out"/>
<feColorMatrix type="matrix" values="0 0 0 0 0 0 0 0 0 0 0 0 0 0 0 0 0 0 0.05 0"/>
<feBlend mode="normal" in2="BackgroundImageFix" result="effect1_dropShadow_24_20"/>
<feBlend mode="normal" in="SourceGraphic" in2="effect1_dropShadow_24_20" result="shape"/>
</filter>
</defs>
</svg>
